<?xml version="1.0" encoding="UTF-8"?>
<svg id="Camada_2" data-name="Camada 2" xmlns="http://www.w3.org/2000/svg" viewBox="0 0 1086.32 280.75">
  <defs>
    <style>
      .cls-1 {
        fill: #232323;
      }

      .cls-2 {
        fill: #f3000a;
      }
    </style>
  </defs>
  <g id="Layer_1" data-name="Layer 1">
    <g>
      <g>
        <path class="cls-1" d="M277.34,166.57c0-6.3,1.33-11.55,3.98-15.76,2.66-4.2,6.27-7.51,10.85-9.92,4.57-2.41,9.79-4.14,15.66-5.19,5.87-1.05,12.02-1.7,18.45-1.95l14.83-.56v-3.52c0-6.67-1.42-11.52-4.26-14.55-2.84-3.03-7.41-4.54-13.72-4.54s-10.75,1.08-13.72,3.25c-2.97,2.16-4.94,5.22-5.93,9.17l-20.95-1.85c1.73-9.39,6.05-16.28,12.98-20.67,6.92-4.38,16.37-6.58,28.36-6.58,14.34,0,24.53,3.25,30.59,9.73,6.06,6.49,9.08,15.85,9.08,28.08v61.55h-21.69v-11.87c-3.71,4.2-8.1,7.63-13.16,10.29-5.07,2.65-11.19,3.99-18.35,3.99-9.76,0-17.7-2.5-23.82-7.51-6.12-5-9.18-12.2-9.18-21.6Zm22.62-1.11c0,3.96,1.23,7.14,3.71,9.55,2.47,2.41,6.49,3.62,12.05,3.62,7.66,0,13.81-1.97,18.44-5.93,4.64-3.95,6.95-9.51,6.95-16.68v-8.16l-13.72,.56c-10.51,.37-17.7,1.98-21.6,4.82s-5.84,6.92-5.84,12.23Z"/>
        <path class="cls-1" d="M385.23,161.19V96.86h23.36v60.06c0,7.05,1.21,12.08,3.61,15.11,2.41,3.03,6.27,4.54,11.59,4.54,6.3,0,11.74-2.23,16.31-6.67,2.23-2.1,3.95-4.39,5.19-6.86,1.23-2.47,1.85-5.56,1.85-9.27v-56.91h23.36v96.4h-22.99v-13.35c-4.33,5.56-9.08,9.67-14.27,12.33-5.19,2.66-10.82,3.99-16.87,3.99-10.51,0-18.32-3-23.45-8.99-5.13-5.99-7.69-14.67-7.69-26.05Z"/>
        <path class="cls-1" d="M499.97,159.89v-44.68h-15.2v-18.35h15.2v-25.95h23.36v25.95h23.91v18.35h-23.91v47.09c0,4.33,.99,7.72,2.97,10.2,1.98,2.47,5,3.71,9.08,3.71,2.35,0,4.45-.18,6.3-.56,1.85-.37,3.58-.8,5.19-1.3l3.52,17.42c-3.09,.99-6.27,1.79-9.55,2.41-3.28,.62-7.02,.93-11.21,.93-7.66,0-13.66-1.39-17.98-4.17-4.33-2.78-7.35-6.8-9.08-12.05-1.73-5.25-2.59-11.59-2.59-19Z"/>
        <path class="cls-1" d="M563.93,60.9h23.36v48.38c4.82-5.68,9.82-9.67,15.02-11.96,5.19-2.28,10.57-3.43,16.13-3.43,10.63,0,18.66,3,24.1,8.99,5.44,6,8.16,14.62,8.16,25.86v64.51h-23.36v-60.06c0-7.17-1.33-12.26-3.98-15.29-2.66-3.03-6.71-4.54-12.14-4.54-3.09,0-6.09,.56-8.99,1.67-2.9,1.11-5.53,2.84-7.88,5.19-2.35,2.1-4.11,4.36-5.28,6.77-1.18,2.41-1.76,5.59-1.76,9.55v56.73h-23.36V60.9Z"/>
        <path class="cls-1" d="M669.59,145.43c0-10.5,1.91-19.62,5.75-27.34,3.83-7.72,9.27-13.69,16.31-17.89,7.05-4.2,15.45-6.3,25.21-6.3,12.11,0,21.6,2.97,28.46,8.9,6.86,5.93,11.09,14.21,12.7,24.84l-22.43,2.97c-.99-5.44-2.87-9.76-5.65-12.98-2.78-3.21-7.2-4.82-13.26-4.82-8.28,0-14.18,3-17.7,8.99-3.52,6-5.28,13.69-5.28,23.08s1.73,17.15,5.19,23.26c3.46,6.12,9.39,9.18,17.8,9.18,6.18,0,10.85-1.67,14-5,3.15-3.34,5.16-7.85,6.02-13.53h22.62c-1.48,11.74-5.84,20.92-13.07,27.53-7.23,6.61-17.27,9.92-30.12,9.92-14.95,0-26.45-4.54-34.48-13.63-8.04-9.08-12.05-21.47-12.05-37.17Z"/>
        <path class="cls-1" d="M776.92,161.19V96.86h23.36v60.06c0,7.05,1.21,12.08,3.62,15.11,2.41,3.03,6.27,4.54,11.59,4.54,6.3,0,11.74-2.23,16.31-6.67,2.23-2.1,3.95-4.39,5.19-6.86,1.23-2.47,1.85-5.56,1.85-9.27v-56.91h23.36v96.4h-22.99v-13.35c-4.33,5.56-9.08,9.67-14.28,12.33-5.19,2.66-10.82,3.99-16.87,3.99-10.51,0-18.32-3-23.45-8.99-5.13-5.99-7.69-14.67-7.69-26.05Z"/>
        <path class="cls-1" d="M907.8,193.26h-22.8V60.9h23.36v47.27c3.71-4.57,8.03-8.09,12.98-10.57,4.94-2.47,10.57-3.71,16.87-3.71,13.35,0,23.36,4.57,30.03,13.72,6.67,9.15,10.01,21.32,10.01,36.52,0,10.63-1.7,19.87-5.1,27.71-3.4,7.85-8.19,13.87-14.37,18.07-6.18,4.2-13.6,6.3-22.25,6.3-5.44,0-10.66-1.11-15.67-3.34-5-2.22-9.36-5.87-13.07-10.93v11.31Zm.37-51.35v5.38c0,10.38,2.1,17.98,6.3,22.8,4.2,4.82,9.82,7.23,16.87,7.23s12.33-2.5,16.59-7.51,6.39-13.37,6.39-25.12c0-7.91-1.02-14.18-3.06-18.82-2.04-4.64-4.73-7.97-8.06-10.01-3.34-2.04-6.98-3.06-10.94-3.06-7.17,0-12.98,2.53-17.42,7.6-4.45,5.07-6.67,12.23-6.67,21.5Z"/>
        <path class="cls-1" d="M995.11,145.8c0-11.12,1.98-20.55,5.93-28.27,3.95-7.72,9.46-13.59,16.5-17.61,7.04-4.01,15.2-6.03,24.47-6.03,10.01,0,18.29,2.01,24.84,6.03,6.55,4.02,11.43,9.61,14.64,16.78,3.21,7.17,4.82,15.51,4.82,25.03v8.71h-68.22c.49,9.27,2.72,16.31,6.67,21.13,3.95,4.82,9.7,7.23,17.24,7.23,6.55,0,11.43-1.23,14.64-3.71,3.21-2.47,5.38-5.93,6.49-10.38h21.87c-1.61,9.89-5.93,17.61-12.98,23.17-7.05,5.56-16.99,8.34-29.85,8.34-15.08,0-26.69-4.42-34.85-13.26-8.16-8.83-12.23-21.23-12.23-37.17Zm63.58-28.55c-3.09-4.32-8.65-6.49-16.68-6.49s-13.78,2.32-17.24,6.95c-3.46,4.64-5.63,10.72-6.49,18.26h45.6c-.37-8.16-2.1-14.4-5.19-18.72Z"/>
      </g>
      <g>
        <path class="cls-2" d="M122.39,280.75c-1.06,0-2.13-.28-3.08-.83L3.08,212.82c-2.95-1.7-3.96-5.47-2.26-8.42,1.7-2.95,5.47-3.96,8.42-2.26l113.15,65.33,110.07-63.55V76.83L122.39,13.28,9.24,78.61c-2.95,1.7-6.72,.69-8.42-2.26-1.7-2.95-.69-6.72,2.26-8.42L119.31,.83c1.91-1.1,4.25-1.1,6.16,0l116.23,67.11c1.91,1.1,3.08,3.14,3.08,5.34V207.48c0,2.2-1.17,4.24-3.08,5.34l-116.23,67.11c-.95,.55-2.02,.83-3.08,.83Z"/>
        <path class="cls-2" d="M122.39,247.85c-1.06,0-2.13-.28-3.08-.83L31.58,196.37c-1.91-1.1-3.08-3.14-3.08-5.34V89.72c0-2.2,1.17-4.24,3.08-5.34L119.31,33.73c1.91-1.1,4.25-1.1,6.16,0l87.74,50.66c2.95,1.7,3.96,5.47,2.26,8.42-1.7,2.95-5.47,3.96-8.42,2.26L122.39,46.18,40.82,93.28v94.2l81.58,47.1,84.66-48.88c2.95-1.71,6.72-.69,8.42,2.26,1.7,2.95,.69,6.72-2.26,8.42l-87.74,50.66c-.95,.55-2.02,.83-3.08,.83Z"/>
        <path class="cls-2" d="M122.4,214.95c-2.13,0-4.2-1.11-5.34-3.08-1.7-2.95-.69-6.72,2.26-8.42l56.16-32.43v-61.3l-53.08-30.65-53.08,30.65v64.85c0,3.4-2.76,6.16-6.16,6.16s-6.16-2.76-6.16-6.16V106.17c0-2.2,1.17-4.24,3.08-5.34l59.25-34.21c1.91-1.1,4.25-1.1,6.16,0l59.25,34.21c1.91,1.1,3.08,3.14,3.08,5.34v68.41c0,2.2-1.17,4.24-3.08,5.34l-59.25,34.21c-.97,.56-2.03,.83-3.08,.83Z"/>
        <path class="cls-2" d="M122.39,182.05c-1.06,0-2.13-.28-3.08-.83l-30.75-17.76c-1.91-1.1-3.08-3.14-3.08-5.34v-35.51c0-3.4,2.76-6.16,6.16-6.16s6.16,2.76,6.16,6.16v31.95l24.59,14.2,24.59-14.2v-28.39l-27.67-15.98c-2.95-1.7-3.96-5.47-2.26-8.42,1.7-2.95,5.47-3.96,8.42-2.26l30.75,17.76c1.91,1.1,3.08,3.14,3.08,5.34v35.51c0,2.2-1.17,4.23-3.08,5.34l-30.75,17.76c-.95,.55-2.02,.83-3.08,.83Z"/>
      </g>
    </g>
  </g>
</svg>